<svg xmlns="http://www.w3.org/2000/svg" viewBox="0 0 800 600" width="800" height="600">
  <defs>
    <linearGradient id="bg" x1="0%" y1="0%" x2="100%" y2="100%">
      <stop offset="0%" style="stop-color:#030f0a"/>
      <stop offset="100%" style="stop-color:#041a10"/>
    </linearGradient>
    <filter id="blur"><feGaussianBlur stdDeviation="40"/></filter>
    <filter id="blur2"><feGaussianBlur stdDeviation="20"/></filter>
  </defs>
  <rect width="800" height="600" fill="url(#bg)"/><circle cx="785" cy="235" r="108" fill="#38bdf8" opacity="0.3285137171119295" filter="url(#blur)"/><circle cx="21" cy="481" r="104" fill="#10b981" opacity="0.15942897275756088" filter="url(#blur)"/><circle cx="295" cy="471" r="188" fill="#06b6d4" opacity="0.15753142864593359" filter="url(#blur)"/><circle cx="353" cy="64" r="189" fill="#06b6d4" opacity="0.19650848875500446" filter="url(#blur)"/><circle cx="127" cy="417" r="10" fill="#38bdf8" opacity="0.10552058234330804"/><polygon points="637.0,228.0 691.6,259.5 691.6,322.5 637.0,354.0 582.4,322.5 582.4,259.5" fill="none" stroke="#38bdf8" stroke-width="1.5" opacity="0.4892615616741255"/><line x1="377" y1="411" x2="406" y2="564" stroke="#10b981" stroke-width="1" opacity="0.18283012533332382"/><line x1="138" y1="48" x2="42" y2="183" stroke="#38bdf8" stroke-width="1" opacity="0.2926590321221263"/><rect x="241" y="559" width="26" height="106" fill="none" stroke="#14b8a6" stroke-width="1" opacity="0.23962899229901713" transform="rotate(1,254,612)"/><rect x="642" y="371" width="84" height="22" fill="none" stroke="#10b981" stroke-width="1" opacity="0.44937045549008714" transform="rotate(114,684,382)"/><circle cx="280" cy="206" r="48" fill="#10b981" opacity="0.1465087689652005"/><circle cx="299" cy="15" r="50" fill="none" stroke="#38bdf8" stroke-width="1" opacity="0.2778284281819634"/><line x1="183" y1="157" x2="-4" y2="118" stroke="#38bdf8" stroke-width="1" opacity="0.19958967142413353"/><rect x="106" y="285" width="31" height="84" fill="none" stroke="#38bdf8" stroke-width="1" opacity="0.47993760846888645" transform="rotate(198,121,327)"/><rect x="170" y="432" width="115" height="88" fill="none" stroke="#38bdf8" stroke-width="1" opacity="0.22663766429836207" transform="rotate(338,227,476)"/><circle cx="8" cy="177" r="20" fill="#06b6d4" opacity="0.14919166312906895"/><polygon points="185.0,157.0 256.0,228.0 185.0,299.0 114.0,228.0" fill="none" stroke="#06b6d4" stroke-width="1.5" opacity="0.36444933388388534"/><rect x="651" y="326" width="26" height="115" fill="none" stroke="#10b981" stroke-width="1" opacity="0.3446890283911229" transform="rotate(201,664,383)"/><line x1="508" y1="527" x2="532" y2="349" stroke="#10b981" stroke-width="1" opacity="0.48791018583577805"/><line x1="384" y1="130" x2="391" y2="-29" stroke="#10b981" stroke-width="1" opacity="0.20322651500640176"/><line x1="157" y1="538" x2="330" y2="666" stroke="#38bdf8" stroke-width="1" opacity="0.20621125448129407"/><circle cx="8" cy="211" r="11" fill="#14b8a6" opacity="0.15269824514168198"/><line x1="0" y1="0" x2="0" y2="600" stroke="#10b981" stroke-width="0.5" opacity="0.08"/><line x1="60" y1="0" x2="60" y2="600" stroke="#10b981" stroke-width="0.5" opacity="0.08"/><line x1="120" y1="0" x2="120" y2="600" stroke="#10b981" stroke-width="0.5" opacity="0.08"/><line x1="180" y1="0" x2="180" y2="600" stroke="#10b981" stroke-width="0.5" opacity="0.08"/><line x1="240" y1="0" x2="240" y2="600" stroke="#10b981" stroke-width="0.5" opacity="0.08"/><line x1="300" y1="0" x2="300" y2="600" stroke="#10b981" stroke-width="0.5" opacity="0.08"/><line x1="360" y1="0" x2="360" y2="600" stroke="#10b981" stroke-width="0.5" opacity="0.08"/><line x1="420" y1="0" x2="420" y2="600" stroke="#10b981" stroke-width="0.5" opacity="0.08"/><line x1="480" y1="0" x2="480" y2="600" stroke="#10b981" stroke-width="0.5" opacity="0.08"/><line x1="540" y1="0" x2="540" y2="600" stroke="#10b981" stroke-width="0.5" opacity="0.08"/><line x1="600" y1="0" x2="600" y2="600" stroke="#10b981" stroke-width="0.5" opacity="0.08"/><line x1="660" y1="0" x2="660" y2="600" stroke="#10b981" stroke-width="0.5" opacity="0.08"/><line x1="720" y1="0" x2="720" y2="600" stroke="#10b981" stroke-width="0.5" opacity="0.08"/><line x1="780" y1="0" x2="780" y2="600" stroke="#10b981" stroke-width="0.5" opacity="0.08"/><line x1="0" y1="0" x2="800" y2="0" stroke="#10b981" stroke-width="0.5" opacity="0.08"/><line x1="0" y1="60" x2="800" y2="60" stroke="#10b981" stroke-width="0.5" opacity="0.08"/><line x1="0" y1="120" x2="800" y2="120" stroke="#10b981" stroke-width="0.5" opacity="0.08"/><line x1="0" y1="180" x2="800" y2="180" stroke="#10b981" stroke-width="0.5" opacity="0.08"/><line x1="0" y1="240" x2="800" y2="240" stroke="#10b981" stroke-width="0.5" opacity="0.08"/><line x1="0" y1="300" x2="800" y2="300" stroke="#10b981" stroke-width="0.5" opacity="0.08"/><line x1="0" y1="360" x2="800" y2="360" stroke="#10b981" stroke-width="0.5" opacity="0.08"/><line x1="0" y1="420" x2="800" y2="420" stroke="#10b981" stroke-width="0.5" opacity="0.08"/><line x1="0" y1="480" x2="800" y2="480" stroke="#10b981" stroke-width="0.5" opacity="0.08"/><line x1="0" y1="540" x2="800" y2="540" stroke="#10b981" stroke-width="0.5" opacity="0.08"/><circle cx="188" cy="517" r="2.7091788050940773" fill="#14b8a6" opacity="0.3096699012188246"/><circle cx="42" cy="588" r="2.3431381908537716" fill="#14b8a6" opacity="0.7111912281932693"/><circle cx="32" cy="290" r="1.5335120817634622" fill="#14b8a6" opacity="0.4428496060185468"/><circle cx="696" cy="206" r="2.898215150206058" fill="#06b6d4" opacity="0.3241502385586169"/><circle cx="310" cy="467" r="1.9853325024687176" fill="#14b8a6" opacity="0.6454545041565056"/><circle cx="503" cy="415" r="2.312768609424633" fill="#10b981" opacity="0.5500632168531159"/><circle cx="703" cy="421" r="1.2621989467254655" fill="#10b981" opacity="0.752347885049135"/><circle cx="779" cy="366" r="2.1185741291345837" fill="#10b981" opacity="0.6178605541467465"/><circle cx="487" cy="349" r="2.4540100570513275" fill="#10b981" opacity="0.34943113336960085"/><circle cx="457" cy="272" r="1.3172089896832557" fill="#38bdf8" opacity="0.5883295758719955"/><circle cx="59" cy="251" r="2.6587859942620633" fill="#06b6d4" opacity="0.781985433030258"/><circle cx="593" cy="159" r="1.0950927175463214" fill="#10b981" opacity="0.510521461846721"/><circle cx="262" cy="517" r="2.6987478108695413" fill="#06b6d4" opacity="0.35853049429123973"/><circle cx="467" cy="366" r="1.7823532636131665" fill="#10b981" opacity="0.5913271150882096"/><circle cx="324" cy="135" r="2.119115462377755" fill="#06b6d4" opacity="0.7580454720624967"/><circle cx="51" cy="281" r="2.083468245479593" fill="#14b8a6" opacity="0.6733819822959433"/><circle cx="477" cy="493" r="1.3427813706150131" fill="#14b8a6" opacity="0.6513293863740686"/><circle cx="136" cy="549" r="1.0275455530738349" fill="#06b6d4" opacity="0.3860735946276605"/><circle cx="682" cy="522" r="2.303717577256501" fill="#14b8a6" opacity="0.7943170652620297"/><circle cx="599" cy="42" r="1.1315069259271886" fill="#06b6d4" opacity="0.419292612539603"/>
</svg>