<svg xmlns="http://www.w3.org/2000/svg" viewBox="0 0 800 600" width="800" height="600">
  <defs>
    <linearGradient id="bg" x1="0%" y1="0%" x2="100%" y2="100%">
      <stop offset="0%" style="stop-color:#030f0a"/>
      <stop offset="100%" style="stop-color:#041a10"/>
    </linearGradient>
    <filter id="blur"><feGaussianBlur stdDeviation="40"/></filter>
    <filter id="blur2"><feGaussianBlur stdDeviation="20"/></filter>
  </defs>
  <rect width="800" height="600" fill="url(#bg)"/><circle cx="748" cy="482" r="83" fill="#14b8a6" opacity="0.2372791827130693" filter="url(#blur)"/><circle cx="536" cy="243" r="128" fill="#06b6d4" opacity="0.2000637897019319" filter="url(#blur)"/><circle cx="601" cy="512" r="144" fill="#14b8a6" opacity="0.24924875017689785" filter="url(#blur)"/><circle cx="260" cy="171" r="149" fill="#06b6d4" opacity="0.32368129619082475" filter="url(#blur)"/><rect x="460" y="407" width="105" height="37" fill="none" stroke="#38bdf8" stroke-width="1" opacity="0.24614576563213342" transform="rotate(17,512,425)"/><polygon points="570.0,293.0 636.7,331.5 636.7,408.5 570.0,447.0 503.3,408.5 503.3,331.5" fill="none" stroke="#14b8a6" stroke-width="1.5" opacity="0.43296641385581847"/><polygon points="375.0,290.0 415.7,360.5 334.3,360.5" fill="none" stroke="#10b981" stroke-width="1.5" opacity="0.3935579939852518"/><rect x="548" y="234" width="64" height="114" fill="none" stroke="#14b8a6" stroke-width="1" opacity="0.2910037196109694" transform="rotate(113,580,291)"/><polygon points="611.0,415.0 684.0,488.0 611.0,561.0 538.0,488.0" fill="none" stroke="#10b981" stroke-width="1.5" opacity="0.33704544700797023"/><line x1="149" y1="456" x2="174" y2="565" stroke="#10b981" stroke-width="1" opacity="0.27000873433590544"/><polygon points="620.0,237.0 654.6,297.0 585.4,297.0" fill="none" stroke="#14b8a6" stroke-width="1.5" opacity="0.15521397289529382"/><rect x="616" y="281" width="119" height="79" fill="none" stroke="#14b8a6" stroke-width="1" opacity="0.17166405899620613" transform="rotate(137,675,320)"/><circle cx="531" cy="234" r="12" fill="none" stroke="#38bdf8" stroke-width="1" opacity="0.21260047724574643"/><polygon points="441.0,300.0 494.7,331.0 494.7,393.0 441.0,424.0 387.3,393.0 387.3,331.0" fill="none" stroke="#14b8a6" stroke-width="1.5" opacity="0.4279864113160261"/><polygon points="222.0,392.0 252.3,409.5 252.3,444.5 222.0,462.0 191.7,444.5 191.7,409.5" fill="none" stroke="#14b8a6" stroke-width="1.5" opacity="0.22118534280800925"/><polygon points="658.0,188.0 703.9,267.5 612.1,267.5" fill="none" stroke="#38bdf8" stroke-width="1.5" opacity="0.4862240693866158"/><line x1="2" y1="568" x2="-159" y2="557" stroke="#10b981" stroke-width="1" opacity="0.10377070808879713"/><rect x="706" y="474" width="107" height="74" fill="none" stroke="#14b8a6" stroke-width="1" opacity="0.1608106921667175" transform="rotate(163,759,511)"/><circle cx="670" cy="285" r="37" fill="none" stroke="#10b981" stroke-width="1" opacity="0.24480127976597368"/><line x1="386" y1="264" x2="192" y2="372" stroke="#38bdf8" stroke-width="1" opacity="0.43787244958527716"/><circle cx="498" cy="414" r="33" fill="#38bdf8" opacity="0.1976215394442315"/><line x1="775" y1="119" x2="823" y2="-34" stroke="#38bdf8" stroke-width="1" opacity="0.14963095719440897"/><line x1="0" y1="0" x2="0" y2="600" stroke="#10b981" stroke-width="0.5" opacity="0.08"/><line x1="60" y1="0" x2="60" y2="600" stroke="#10b981" stroke-width="0.5" opacity="0.08"/><line x1="120" y1="0" x2="120" y2="600" stroke="#10b981" stroke-width="0.5" opacity="0.08"/><line x1="180" y1="0" x2="180" y2="600" stroke="#10b981" stroke-width="0.5" opacity="0.08"/><line x1="240" y1="0" x2="240" y2="600" stroke="#10b981" stroke-width="0.5" opacity="0.08"/><line x1="300" y1="0" x2="300" y2="600" stroke="#10b981" stroke-width="0.5" opacity="0.08"/><line x1="360" y1="0" x2="360" y2="600" stroke="#10b981" stroke-width="0.5" opacity="0.08"/><line x1="420" y1="0" x2="420" y2="600" stroke="#10b981" stroke-width="0.5" opacity="0.08"/><line x1="480" y1="0" x2="480" y2="600" stroke="#10b981" stroke-width="0.5" opacity="0.08"/><line x1="540" y1="0" x2="540" y2="600" stroke="#10b981" stroke-width="0.5" opacity="0.08"/><line x1="600" y1="0" x2="600" y2="600" stroke="#10b981" stroke-width="0.5" opacity="0.08"/><line x1="660" y1="0" x2="660" y2="600" stroke="#10b981" stroke-width="0.5" opacity="0.08"/><line x1="720" y1="0" x2="720" y2="600" stroke="#10b981" stroke-width="0.5" opacity="0.08"/><line x1="780" y1="0" x2="780" y2="600" stroke="#10b981" stroke-width="0.5" opacity="0.08"/><line x1="0" y1="0" x2="800" y2="0" stroke="#10b981" stroke-width="0.5" opacity="0.08"/><line x1="0" y1="60" x2="800" y2="60" stroke="#10b981" stroke-width="0.5" opacity="0.08"/><line x1="0" y1="120" x2="800" y2="120" stroke="#10b981" stroke-width="0.5" opacity="0.08"/><line x1="0" y1="180" x2="800" y2="180" stroke="#10b981" stroke-width="0.5" opacity="0.08"/><line x1="0" y1="240" x2="800" y2="240" stroke="#10b981" stroke-width="0.5" opacity="0.08"/><line x1="0" y1="300" x2="800" y2="300" stroke="#10b981" stroke-width="0.5" opacity="0.08"/><line x1="0" y1="360" x2="800" y2="360" stroke="#10b981" stroke-width="0.5" opacity="0.08"/><line x1="0" y1="420" x2="800" y2="420" stroke="#10b981" stroke-width="0.5" opacity="0.08"/><line x1="0" y1="480" x2="800" y2="480" stroke="#10b981" stroke-width="0.5" opacity="0.08"/><line x1="0" y1="540" x2="800" y2="540" stroke="#10b981" stroke-width="0.5" opacity="0.08"/><circle cx="6" cy="189" r="2.962801922539942" fill="#38bdf8" opacity="0.31551258187904113"/><circle cx="135" cy="96" r="1.7875217762739808" fill="#06b6d4" opacity="0.43052931897908214"/><circle cx="408" cy="39" r="1.0363079832610333" fill="#38bdf8" opacity="0.44890974925162946"/><circle cx="674" cy="98" r="2.9344856419706877" fill="#10b981" opacity="0.30524975153609113"/><circle cx="160" cy="155" r="1.7518675794374625" fill="#38bdf8" opacity="0.32591304679717287"/><circle cx="742" cy="42" r="1.439174112332387" fill="#10b981" opacity="0.3940428403054532"/><circle cx="565" cy="476" r="2.60595450610273" fill="#38bdf8" opacity="0.6685089795794359"/><circle cx="491" cy="559" r="1.824959031742849" fill="#06b6d4" opacity="0.5965159966257187"/><circle cx="81" cy="110" r="1.9133149688266333" fill="#06b6d4" opacity="0.4610587639593509"/><circle cx="768" cy="311" r="1.651213858082329" fill="#10b981" opacity="0.33641379032503144"/><circle cx="713" cy="222" r="2.989021957387387" fill="#06b6d4" opacity="0.7875925166900115"/><circle cx="700" cy="117" r="1.2524353894985258" fill="#10b981" opacity="0.6180093594405323"/><circle cx="281" cy="545" r="1.7408391494102924" fill="#10b981" opacity="0.37372334596692736"/><circle cx="195" cy="331" r="2.098391525659604" fill="#10b981" opacity="0.6678510391525054"/><circle cx="454" cy="453" r="2.508223707542978" fill="#06b6d4" opacity="0.6099295979145012"/><circle cx="457" cy="169" r="2.120690820309706" fill="#06b6d4" opacity="0.5516725577896111"/><circle cx="756" cy="282" r="1.784505128532179" fill="#06b6d4" opacity="0.3301190112249015"/><circle cx="512" cy="285" r="1.62568218356002" fill="#14b8a6" opacity="0.4187469120068098"/><circle cx="295" cy="224" r="2.6950718304175734" fill="#38bdf8" opacity="0.6658784076128674"/><circle cx="534" cy="247" r="2.0527713015205866" fill="#38bdf8" opacity="0.6263949258037971"/>
</svg>