<svg xmlns="http://www.w3.org/2000/svg" viewBox="0 0 800 600" width="800" height="600">
  <defs>
    <linearGradient id="bg" x1="0%" y1="0%" x2="100%" y2="100%">
      <stop offset="0%" style="stop-color:#030f0a"/>
      <stop offset="100%" style="stop-color:#041a10"/>
    </linearGradient>
    <filter id="blur"><feGaussianBlur stdDeviation="40"/></filter>
    <filter id="blur2"><feGaussianBlur stdDeviation="20"/></filter>
  </defs>
  <rect width="800" height="600" fill="url(#bg)"/><circle cx="396" cy="108" r="127" fill="#38bdf8" opacity="0.16403690684943464" filter="url(#blur)"/><circle cx="67" cy="354" r="132" fill="#14b8a6" opacity="0.1880381033107924" filter="url(#blur)"/><circle cx="37" cy="482" r="183" fill="#06b6d4" opacity="0.2502932388073072" filter="url(#blur)"/><circle cx="750" cy="87" r="97" fill="#14b8a6" opacity="0.34509995105105895" filter="url(#blur)"/><polygon points="368.0,132.0 417.5,167.9 398.6,226.1 337.4,226.1 318.5,167.9" fill="none" stroke="#38bdf8" stroke-width="1.5" opacity="0.4382492352428339"/><line x1="393" y1="206" x2="552" y2="42" stroke="#38bdf8" stroke-width="1" opacity="0.13887121832833338"/><line x1="774" y1="255" x2="641" y2="222" stroke="#14b8a6" stroke-width="1" opacity="0.24375822230976563"/><polygon points="643.0,107.0 714.0,178.0 643.0,249.0 572.0,178.0" fill="none" stroke="#38bdf8" stroke-width="1.5" opacity="0.4860936998933122"/><line x1="636" y1="157" x2="607" y2="288" stroke="#38bdf8" stroke-width="1" opacity="0.2883232506093559"/><rect x="416" y="283" width="119" height="103" fill="none" stroke="#06b6d4" stroke-width="1" opacity="0.39159208604713414" transform="rotate(197,475,334)"/><line x1="793" y1="121" x2="857" y2="149" stroke="#10b981" stroke-width="1" opacity="0.473232987952516"/><circle cx="58" cy="1" r="53" fill="#10b981" opacity="0.21612025797546525"/><polygon points="566.0,151.0 635.3,191.0 635.3,271.0 566.0,311.0 496.7,271.0 496.7,191.0" fill="none" stroke="#06b6d4" stroke-width="1.5" opacity="0.37473996583161173"/><line x1="506" y1="412" x2="346" y2="596" stroke="#14b8a6" stroke-width="1" opacity="0.14986401791087756"/><line x1="66" y1="276" x2="168" y2="225" stroke="#06b6d4" stroke-width="1" opacity="0.36411684633805563"/><rect x="197" y="133" width="43" height="56" fill="none" stroke="#10b981" stroke-width="1" opacity="0.48500010241593094" transform="rotate(323,218,161)"/><circle cx="670" cy="442" r="55" fill="#10b981" opacity="0.11941290399045797"/><polygon points="276.0,399.0 337.5,434.5 337.5,505.5 276.0,541.0 214.5,505.5 214.5,434.5" fill="none" stroke="#38bdf8" stroke-width="1.5" opacity="0.45051844353007586"/><rect x="490" y="253" width="61" height="53" fill="none" stroke="#14b8a6" stroke-width="1" opacity="0.336992250085661" transform="rotate(268,520,279)"/><polygon points="172.0,50.0 226.0,104.0 172.0,158.0 118.0,104.0" fill="none" stroke="#14b8a6" stroke-width="1.5" opacity="0.3724568427179532"/><circle cx="166" cy="598" r="54" fill="none" stroke="#10b981" stroke-width="1" opacity="0.12728028024740068"/><polygon points="446.0,312.0 511.0,424.5 381.0,424.5" fill="none" stroke="#06b6d4" stroke-width="1.5" opacity="0.46679001069267645"/><line x1="0" y1="0" x2="0" y2="600" stroke="#10b981" stroke-width="0.5" opacity="0.08"/><line x1="60" y1="0" x2="60" y2="600" stroke="#10b981" stroke-width="0.5" opacity="0.08"/><line x1="120" y1="0" x2="120" y2="600" stroke="#10b981" stroke-width="0.5" opacity="0.08"/><line x1="180" y1="0" x2="180" y2="600" stroke="#10b981" stroke-width="0.5" opacity="0.08"/><line x1="240" y1="0" x2="240" y2="600" stroke="#10b981" stroke-width="0.5" opacity="0.08"/><line x1="300" y1="0" x2="300" y2="600" stroke="#10b981" stroke-width="0.5" opacity="0.08"/><line x1="360" y1="0" x2="360" y2="600" stroke="#10b981" stroke-width="0.5" opacity="0.08"/><line x1="420" y1="0" x2="420" y2="600" stroke="#10b981" stroke-width="0.5" opacity="0.08"/><line x1="480" y1="0" x2="480" y2="600" stroke="#10b981" stroke-width="0.5" opacity="0.08"/><line x1="540" y1="0" x2="540" y2="600" stroke="#10b981" stroke-width="0.5" opacity="0.08"/><line x1="600" y1="0" x2="600" y2="600" stroke="#10b981" stroke-width="0.5" opacity="0.08"/><line x1="660" y1="0" x2="660" y2="600" stroke="#10b981" stroke-width="0.5" opacity="0.08"/><line x1="720" y1="0" x2="720" y2="600" stroke="#10b981" stroke-width="0.5" opacity="0.08"/><line x1="780" y1="0" x2="780" y2="600" stroke="#10b981" stroke-width="0.5" opacity="0.08"/><line x1="0" y1="0" x2="800" y2="0" stroke="#10b981" stroke-width="0.5" opacity="0.08"/><line x1="0" y1="60" x2="800" y2="60" stroke="#10b981" stroke-width="0.5" opacity="0.08"/><line x1="0" y1="120" x2="800" y2="120" stroke="#10b981" stroke-width="0.5" opacity="0.08"/><line x1="0" y1="180" x2="800" y2="180" stroke="#10b981" stroke-width="0.5" opacity="0.08"/><line x1="0" y1="240" x2="800" y2="240" stroke="#10b981" stroke-width="0.5" opacity="0.08"/><line x1="0" y1="300" x2="800" y2="300" stroke="#10b981" stroke-width="0.5" opacity="0.08"/><line x1="0" y1="360" x2="800" y2="360" stroke="#10b981" stroke-width="0.5" opacity="0.08"/><line x1="0" y1="420" x2="800" y2="420" stroke="#10b981" stroke-width="0.5" opacity="0.08"/><line x1="0" y1="480" x2="800" y2="480" stroke="#10b981" stroke-width="0.5" opacity="0.08"/><line x1="0" y1="540" x2="800" y2="540" stroke="#10b981" stroke-width="0.5" opacity="0.08"/><circle cx="487" cy="100" r="2.4434794609456305" fill="#10b981" opacity="0.30642278043855686"/><circle cx="659" cy="328" r="2.9681405218448123" fill="#10b981" opacity="0.6825578071087355"/><circle cx="98" cy="231" r="2.688601439895996" fill="#14b8a6" opacity="0.380372949150289"/><circle cx="429" cy="482" r="2.147164838296633" fill="#14b8a6" opacity="0.7364187035441422"/><circle cx="426" cy="551" r="2.7914979489550547" fill="#14b8a6" opacity="0.4742562717230656"/><circle cx="43" cy="141" r="1.8005677382909226" fill="#38bdf8" opacity="0.7364854350667258"/><circle cx="392" cy="386" r="1.1948407705194277" fill="#14b8a6" opacity="0.35659263067070923"/><circle cx="756" cy="378" r="1.0892177140651522" fill="#14b8a6" opacity="0.39145451900190903"/><circle cx="748" cy="206" r="1.0866913441971848" fill="#14b8a6" opacity="0.533842316677057"/><circle cx="499" cy="495" r="2.438767229187957" fill="#38bdf8" opacity="0.6213619476580932"/><circle cx="33" cy="468" r="2.519421625254265" fill="#38bdf8" opacity="0.4393927546827038"/><circle cx="66" cy="489" r="1.3832042754365792" fill="#10b981" opacity="0.420663780404678"/><circle cx="435" cy="418" r="1.8297357120986792" fill="#14b8a6" opacity="0.5549911973616208"/><circle cx="505" cy="567" r="1.9380312016843741" fill="#14b8a6" opacity="0.5775055353791048"/><circle cx="568" cy="84" r="2.6120752386250805" fill="#14b8a6" opacity="0.607190108396602"/><circle cx="564" cy="538" r="1.440865067670936" fill="#10b981" opacity="0.7525000655272684"/><circle cx="309" cy="512" r="1.198026378482841" fill="#38bdf8" opacity="0.7709051756110894"/><circle cx="599" cy="340" r="1.61958663561722" fill="#10b981" opacity="0.7867174853645891"/><circle cx="789" cy="80" r="1.395438880315321" fill="#10b981" opacity="0.6964882146420455"/><circle cx="622" cy="38" r="2.0905380282567076" fill="#06b6d4" opacity="0.49503054635960975"/>
</svg>